<?xml version="1.0" standalone="no"?>
<!DOCTYPE svg PUBLIC "-//W3C//DTD SVG 20010904//EN"
 "http://www.w3.org/TR/2001/REC-SVG-20010904/DTD/svg10.dtd">
<svg version="1.0" xmlns="http://www.w3.org/2000/svg"
 width="189.000000pt" height="189.000000pt" viewBox="0 0 189.000000 189.000000"
 preserveAspectRatio="xMidYMid meet">
<metadata>
Created by potrace 1.11, written by Peter Selinger 2001-2013
</metadata>
<g transform="translate(0.000000,189.000000) scale(0.100000,-0.100000)"
fill="#000000" stroke="none">
<path d="M243 1873 c-10 -4 -13 -199 -13 -929 0 -508 3 -925 8 -926 4 0 107
-2 230 -3 218 -2 223 -1 227 19 3 12 4 430 3 931 l-3 910 -220 2 c-121 1 -226
-1 -232 -4z m407 -924 c0 -693 -3 -878 -12 -881 -7 -2 -89 -4 -183 -4 l-170 1
-3 881 -2 881 185 0 185 0 0 -878z"/>
<path d="M722 1866 c-4 -6 -7 -204 -7 -439 0 -420 0 -428 20 -433 11 -2 117
-3 235 -2 198 3 215 4 214 21 -1 9 2 17 7 17 5 0 9 -9 9 -21 0 -20 4 -21 63
-16 192 14 366 173 394 361 10 62 5 191 -7 191 -1 0 -3 8 -5 18 -14 76 -113
202 -196 250 -83 49 -217 79 -245 56 -9 -8 -18 -8 -26 -2 -19 15 -446 13 -456
-1z m240 -39 l173 -2 2 -392 2 -393 -120 -1 c-149 -1 -181 -1 -222 0 l-32 1 0
399 c0 301 3 397 12 394 6 -3 89 -5 185 -6z m238 -16 c0 -11 -3 -22 -7 -24 -5
-3 -8 6 -8 19 0 13 3 24 8 24 4 0 7 -9 7 -19z m189 -24 c136 -68 221 -201 222
-350 2 -178 -111 -330 -281 -381 -95 -28 -86 -67 -84 377 1 215 2 393 3 394 4
5 112 -26 140 -40z m-189 -32 c0 -8 -2 -15 -4 -15 -2 0 -6 7 -10 15 -3 8 -1
15 4 15 6 0 10 -7 10 -15z m0 -40 c0 -8 -2 -15 -4 -15 -2 0 -6 7 -10 15 -3 8
-1 15 4 15 6 0 10 -7 10 -15z m-2 -54 c1 -16 -1 -32 -5 -34 -6 -4 -9 44 -4 61
3 9 7 -3 9 -27z m2 -66 c0 -8 -2 -15 -4 -15 -2 0 -6 7 -10 15 -3 8 -1 15 4 15
6 0 10 -7 10 -15z m0 -40 c0 -8 -2 -15 -4 -15 -2 0 -6 7 -10 15 -3 8 -1 15 4
15 6 0 10 -7 10 -15z m-2 -55 c-1 -17 -4 -33 -8 -35 -4 -2 -5 6 -4 18 1 12 3
28 3 35 2 26 10 10 9 -18z m2 -65 c0 -8 -2 -15 -4 -15 -2 0 -6 7 -10 15 -3 8
-1 15 4 15 6 0 10 -7 10 -15z m0 -40 c0 -8 -2 -15 -4 -15 -2 0 -6 7 -10 15 -3
8 -1 15 4 15 6 0 10 -7 10 -15z m-2 -54 c1 -16 -1 -32 -5 -34 -6 -4 -9 44 -4
61 3 9 7 -3 9 -27z m2 -66 c0 -8 -2 -15 -4 -15 -2 0 -6 7 -10 15 -3 8 -1 15 4
15 6 0 10 -7 10 -15z m0 -40 c0 -8 -2 -15 -4 -15 -2 0 -6 7 -10 15 -3 8 -1 15
4 15 6 0 10 -7 10 -15z m-2 -55 c-1 -17 -4 -33 -8 -35 -4 -2 -5 6 -4 18 1 12
3 28 3 35 2 26 10 10 9 -18z m2 -65 c0 -8 -2 -15 -4 -15 -2 0 -6 7 -10 15 -3
8 -1 15 4 15 6 0 10 -7 10 -15z m-2 -50 c-3 -3 -9 2 -12 12 -6 14 -5 15 5 6 7
-7 10 -15 7 -18z"/>
<path d="M737 902 c-9 -2 -18 -7 -18 -10 -1 -4 -2 -198 -3 -432 -1 -279 2
-429 9 -436 6 -7 86 -10 227 -10 204 1 218 2 233 21 9 11 14 15 11 9 -11 -22
19 -33 72 -28 256 24 444 285 386 537 -45 192 -213 337 -401 346 -55 3 -59 0
-54 -51 1 -9 -2 -19 -7 -21 -4 -3 -7 7 -6 22 4 53 2 53 -223 55 -115 0 -217 0
-226 -2z m400 -382 c1 -183 4 -342 6 -352 3 -10 1 -20 -3 -23 -4 -3 -6 -22 -3
-43 l5 -39 -189 1 -188 0 1 395 c1 218 2 396 3 396 0 0 83 0 184 -1 l182 0 2
-334z m251 290 c155 -72 243 -233 220 -404 -22 -161 -130 -283 -294 -330 -28
-8 -55 -11 -61 -8 -7 6 -11 731 -4 776 2 14 72 -3 139 -34z m-188 -15 c0 -8
-2 -15 -4 -15 -2 0 -6 7 -10 15 -3 8 -1 15 4 15 6 0 10 -7 10 -15z m0 -40 c0
-8 -2 -15 -4 -15 -2 0 -6 7 -10 15 -3 8 -1 15 4 15 6 0 10 -7 10 -15z m-2 -54
c1 -16 -1 -32 -5 -34 -6 -4 -9 44 -4 61 3 9 7 -3 9 -27z m2 -66 c0 -8 -2 -15
-4 -15 -2 0 -6 7 -10 15 -3 8 -1 15 4 15 6 0 10 -7 10 -15z m-3 -44 c0 -11 -5
-18 -9 -15 -4 3 -5 11 -1 19 7 21 12 19 10 -4z m1 -71 c-1 -22 -3 -38 -6 -36
-7 8 -8 76 0 76 4 0 7 -18 6 -40z m-1 -92 c-3 -8 -6 -5 -6 6 -1 11 2 17 5 13
3 -3 4 -12 1 -19z m3 -73 c0 -8 -2 -15 -4 -15 -2 0 -6 7 -10 15 -3 8 -1 15 4
15 6 0 10 -7 10 -15z m-2 -55 c-1 -17 -4 -33 -8 -35 -4 -2 -5 6 -4 18 1 12 3
28 3 35 2 26 10 10 9 -18z m2 -65 c0 -8 -2 -15 -4 -15 -2 0 -6 7 -10 15 -3 8
-1 15 4 15 6 0 10 -7 10 -15z m-3 -59 c-1 -19 -5 -32 -9 -30 -3 2 -5 12 -3 22
2 9 4 23 4 30 1 6 3 12 5 12 3 0 4 -15 3 -34z m1 -76 c0 -16 -3 -32 -6 -34 -6
-4 -7 16 -3 57 2 19 8 4 9 -23z"/>
</g>
</svg>
